<?xml version="1.0" encoding="utf-8"?>
<svg width="800px" height="800px" viewBox="0 0 64 64" fill="none" xmlns="http://www.w3.org/2000/svg">
  <path d="M 55.775 46.1 C 56.162 45.428 56.403 44.675 56.403 43.997 L 56.403 20.487 C 56.403 19.811 56.162 19.056 55.775 18.388 L 31.71 32.243 L 55.775 46.1 Z" fill="#00599C" style=""/>
  <path d="M 33.847 59.444 L 54.264 47.692 C 54.852 47.354 55.387 46.768 55.775 46.1 L 31.71 32.243 L 7.641 46.1 C 8.029 46.768 8.563 47.354 9.152 47.692 L 29.568 59.444 C 30.745 60.123 32.67 60.123 33.847 59.444 Z" fill="#004482" style=""/>
  <path d="M 55.775 18.388 C 55.387 17.718 54.852 17.134 54.264 16.795 L 33.847 5.039 C 32.67 4.363 30.745 4.363 29.568 5.039 L 9.152 16.795 C 7.977 17.472 7.013 19.135 7.013 20.489 L 7.013 43.997 C 7.013 44.675 7.254 45.428 7.641 46.1 L 31.71 32.243 L 55.775 18.388 Z" fill="#659AD2" style=""/>
  <path d="M 31.71 48.659 C 22.629 48.659 15.244 41.294 15.244 32.243 C 15.244 23.19 22.629 15.826 31.71 15.826 C 37.567 15.826 43.03 18.97 45.965 24.028 L 38.841 28.141 C 37.365 25.606 34.649 24.041 31.71 24.035 C 27.163 24.041 23.483 27.711 23.476 32.243 C 23.482 36.774 27.163 40.447 31.71 40.455 C 34.649 40.446 37.365 38.883 38.841 36.346 L 45.965 40.457 C 43.013 45.524 37.584 48.647 31.71 48.657 L 31.71 48.659 Z" fill="#ffffff" style=""/>
  <path d="M 48.172 31.331 L 46.339 31.331 L 46.339 29.507 L 44.511 29.507 L 44.511 31.331 L 42.681 31.331 L 42.681 33.155 L 44.511 33.155 L 44.511 34.978 L 46.339 34.978 L 46.339 33.155 L 48.171 33.155 L 48.171 31.331 L 48.172 31.331 Z M 55.031 31.331 L 53.203 31.331 L 53.203 29.507 L 51.372 29.507 L 51.372 31.331 L 49.543 31.331 L 49.543 33.155 L 51.372 33.155 L 51.372 34.978 L 53.202 34.978 L 53.202 33.155 L 55.028 33.155 L 55.028 31.331 L 55.031 31.331 Z" fill="#ffffff" style=""/>
</svg>