<?xml version="1.0" encoding="utf-8"?>
<svg width="800px" height="800px" viewBox="0 0 32 32" fill="none" xmlns="http://www.w3.org/2000/svg">
  <path d="M 16.047 8.852 C 21.915 4.277 18.903 1.302 18.903 1.302 C 19.351 6.031 14.055 7.148 12.635 10.398 C 11.666 12.616 13.299 14.557 16.045 17.004 C 15.802 16.462 15.427 15.935 15.049 15.403 C 13.755 13.584 12.408 11.69 16.047 8.852 Z" fill="#E76F00" style=""/>
  <path d="M 16.983 18.007 C 16.983 18.007 18.749 16.576 17.351 14.988 C 12.612 9.595 22.533 7.148 22.533 7.148 C 16.476 10.079 17.38 11.818 18.903 13.931 C 20.533 16.198 16.983 18.007 16.983 18.007 Z" fill="#E76F00" style=""/>
  <path d="M 22.181 22.272 C 27.619 19.482 25.104 16.801 23.35 17.162 C 22.919 17.25 22.727 17.327 22.727 17.327 C 22.727 17.327 22.887 17.08 23.192 16.973 C 26.664 15.768 29.334 20.528 22.072 22.413 C 22.072 22.413 22.156 22.339 22.181 22.272 Z" fill="#5382A1" style=""/>
  <path d="M 10.866 18.741 C 7.464 18.292 12.732 17.057 12.732 17.057 C 12.732 17.057 10.686 16.92 8.17 18.121 C 5.195 19.542 15.529 20.189 20.878 18.799 C 21.434 18.425 22.202 18.099 22.202 18.099 C 22.202 18.099 20.013 18.485 17.834 18.667 C 15.166 18.887 12.303 18.93 10.866 18.741 Z" fill="#5382A1" style=""/>
  <path d="M 12.16 21.405 C 10.264 21.212 11.506 20.303 11.506 20.303 C 6.597 21.912 14.237 23.737 21.097 21.756 C 20.367 21.502 19.904 21.038 19.904 21.038 C 16.551 21.675 14.614 21.655 12.16 21.405 Z" fill="#5382A1" style=""/>
  <path d="M 12.988 24.288 C 11.091 24.073 12.199 23.437 12.199 23.437 C 7.743 24.666 14.909 27.207 20.583 24.806 C 19.654 24.448 18.988 24.037 18.988 24.037 C 16.458 24.51 15.284 24.547 12.988 24.288 Z" fill="#5382A1" style=""/>
  <path d="M 24.854 25.755 C 24.854 25.755 25.673 26.422 23.952 26.938 C 20.677 27.917 10.321 28.213 7.445 26.977 C 6.411 26.532 8.35 25.916 8.96 25.786 C 9.596 25.65 9.96 25.675 9.96 25.675 C 8.809 24.876 2.526 27.246 6.768 27.925 C 18.335 29.778 27.855 27.091 24.854 25.755 Z" fill="#5382A1" style=""/>
  <path d="M 26.69 27.212 C 26.5 29.651 18.486 30.164 13.266 29.834 C 9.861 29.618 9.179 29.08 9.168 29.071 C 12.428 29.602 17.922 29.698 22.376 28.871 C 26.325 28.136 26.69 27.212 26.69 27.212 Z" fill="#5382A1" style=""/>
</svg>