<?xml version="1.0" encoding="utf-8"?>
<svg fill="none" height="2500" width="2183" viewBox="0 0 124 141.53199999999998" xmlns="http://www.w3.org/2000/svg">
  <path d="M 23.286 116.809 L 15.55 14.361 L 107.942 14.568 L 99.761 116.809 L 62.094 128.628 L 23.286 116.809 Z" fill="#e9ca32" style="opacity: 1;"/>
  <path d="M 62.094 118.734 L 62.094 24.118 L 100.141 24.256 L 93.358 108.906 L 62.094 118.734 Z" fill="#ffde25" style="opacity: 1;"/>
  <g fill="#fff" style="opacity: 1;" transform="matrix(0.745096, 0, 0, 0.807357, 15.550319, 14.361496)">
    <path d="M57 26H43.5v78L33 102V91.5l-12.5-2V113l36.5 9.5zM67.127 26H104.5L102 40.95H81.394v24.533H102L99.5 115l-32.373 7.5V107L89 99.5 90.263 79l-23.136 3.35z"/>
  </g>
</svg>