<?xml version="1.0" encoding="utf-8"?>
<svg width="800px" height="800px" viewBox="0 0 64 64" fill="none" xmlns="http://www.w3.org/2000/svg">
  <path d="M 31.514 8.564 C 20.271 8.564 20.973 13.567 20.973 13.567 L 20.987 18.752 L 31.714 18.752 L 31.714 20.308 L 16.723 20.308 C 16.723 20.308 9.531 19.47 9.531 31.113 C 9.531 42.753 15.81 42.342 15.81 42.342 L 19.558 42.342 L 19.558 36.941 C 19.558 36.941 19.356 30.496 25.736 30.496 L 36.376 30.496 C 36.376 30.496 42.353 30.595 42.353 24.566 L 42.353 14.597 C 42.353 14.597 43.26 8.564 31.514 8.564 Z M 25.597 12.049 C 26.664 12.049 27.528 12.935 27.528 14.03 C 27.528 15.126 26.664 16.012 25.597 16.012 C 24.531 16.013 23.666 15.126 23.667 14.03 C 23.667 12.935 24.531 12.049 25.597 12.049 Z" fill="url(#a)" style=""/>
  <path d="M 31.832 53.778 C 43.075 53.778 42.373 48.774 42.373 48.774 L 42.358 43.589 L 31.632 43.589 L 31.632 42.035 L 46.621 42.035 C 46.621 42.035 53.814 42.873 53.814 31.23 C 53.814 19.586 47.535 20.001 47.535 20.001 L 43.789 20.001 L 43.789 25.402 C 43.789 25.402 43.99 31.847 37.61 31.847 L 26.97 31.847 C 26.97 31.847 20.992 31.746 20.992 37.776 L 20.992 47.746 C 20.992 47.746 20.085 53.778 31.832 53.778 Z M 37.749 50.292 C 36.681 50.293 35.816 49.406 35.817 48.311 C 35.817 47.216 36.681 46.331 37.749 46.331 C 38.815 46.331 39.678 47.215 39.678 48.311 C 39.678 49.407 38.815 50.292 37.749 50.292 Z" fill="url(#b)" style=""/>
  <defs>
    <linearGradient id="a" x1="19.075" y1="18.782" x2="34.898" y2="34.658" gradientUnits="userSpaceOnUse" gradientTransform="matrix(1.383858, 0, 0, 1.420335, -12.61221, -14.161753)">
      <stop stop-color="#387EB8"/>
      <stop offset="1" stop-color="#366994"/>
    </linearGradient>
    <linearGradient id="b" x1="28.809" y1="28.882" x2="45.803" y2="45.163" gradientUnits="userSpaceOnUse" gradientTransform="matrix(1.383858, 0, 0, 1.420335, -12.61221, -14.161753)">
      <stop stop-color="#FFE052"/>
      <stop offset="1" stop-color="#FFC331"/>
    </linearGradient>
  </defs>
</svg>